<svg xmlns="http://www.w3.org/2000/svg" xmlns:xlink="http://www.w3.org/1999/xlink" width="2245" zoomAndPan="magnify" viewBox="0 0 1683.75 1190.250009" height="1587" preserveAspectRatio="xMidYMid meet" version="1.0"><defs><filter x="0%" y="0%" width="100%" height="100%" id="94a4f411fc"><feColorMatrix values="0 0 0 0 1 0 0 0 0 1 0 0 0 0 1 0 0 0 1 0" color-interpolation-filters="sRGB"/></filter><clipPath id="ed52b9c2e7"><path d="M 0.40625 0 L 1683.09375 0 L 1683.09375 1189.5 L 0.40625 1189.5 Z M 0.40625 0 " clip-rule="nonzero"/></clipPath><mask id="98d40efc9a"><g filter="url(#94a4f411fc)"><rect x="-168.375" width="2020.5" fill="#000000" y="-119.025001" height="1428.30001" fill-opacity="0.1"/></g></mask><clipPath id="82630a50fa"><rect x="0" width="935" y="0" height="832"/></clipPath></defs><g clip-path="url(#ed52b9c2e7)"><path fill="#ffffff" d="M 0.40625 0 L 1683.09375 0 L 1683.09375 1189.5 L 0.40625 1189.5 Z M 0.40625 0 " fill-opacity="1" fill-rule="nonzero"/><path fill="#e3545c" d="M 0.40625 0 L 1683.09375 0 L 1683.09375 1189.5 L 0.40625 1189.5 Z M 0.40625 0 " fill-opacity="1" fill-rule="nonzero"/></g><g mask="url(#98d40efc9a)"><g transform="matrix(1, 0, 0, 1, 374, 179)"><g clip-path="url(#82630a50fa)"><path fill="#e9e9e9" d="M 292.257812 38.535156 L 31.449219 182.96875 C 14.480469 192.367188 8.386719 213.589844 17.785156 230.554688 L 162.265625 491.277344 C 171.667969 508.242188 192.898438 514.332031 209.871094 504.933594 L 470.679688 360.503906 C 487.648438 351.105469 493.742188 329.882812 484.339844 312.917969 L 339.863281 52.195312 C 330.460938 35.230469 309.230469 29.140625 292.257812 38.535156 Z M 292.257812 38.535156 " fill-opacity="1" fill-rule="nonzero"/><path fill="#fdc92d" d="M 280.347656 35.0625 L 32.210938 172.476562 C 16.0625 181.417969 10.265625 201.613281 19.210938 217.753906 L 156.671875 465.808594 C 165.617188 481.949219 185.816406 487.746094 201.960938 478.804688 L 450.101562 341.390625 C 466.246094 332.449219 472.046875 312.253906 463.101562 296.113281 L 325.640625 48.058594 C 316.695312 31.917969 296.496094 26.121094 280.347656 35.0625 Z M 280.347656 35.0625 " fill-opacity="1" fill-rule="nonzero"/><path fill="#ffffff" d="M 306.996094 183.230469 L 146.308594 272.21875 C 131 280.695312 125.503906 299.839844 133.984375 315.140625 C 142.460938 330.445312 161.613281 335.9375 176.917969 327.460938 L 337.609375 238.476562 C 352.917969 229.996094 358.414062 210.855469 349.933594 195.550781 C 341.453125 180.25 322.304688 174.753906 306.996094 183.230469 Z M 306.996094 183.230469 " fill-opacity="1" fill-rule="nonzero"/><path fill="#ffffff" d="M 73.09375 315.421875 C 73.707031 315.277344 74.328125 315.132812 74.949219 314.996094 C 78.363281 314.332031 81.867188 313.765625 85.460938 313.296875 C 89.050781 312.828125 92.722656 312.460938 96.476562 312.191406 C 100.226562 311.921875 104.050781 311.753906 107.941406 311.683594 C 111.832031 311.609375 115.785156 311.636719 119.796875 311.765625 C 123.808594 311.890625 127.867188 312.117188 131.980469 312.441406 C 136.09375 312.765625 140.246094 313.1875 144.4375 313.710938 C 148.628906 314.230469 152.847656 314.851562 157.097656 315.566406 C 161.347656 316.28125 165.613281 317.089844 169.898438 317.996094 C 174.183594 318.902344 178.472656 319.902344 182.773438 320.992188 C 187.074219 322.082031 191.371094 323.261719 195.664062 324.535156 C 199.953125 325.804688 204.230469 327.164062 208.492188 328.609375 C 212.753906 330.050781 216.988281 331.578125 221.199219 333.1875 C 225.410156 334.800781 229.585938 336.488281 233.726562 338.257812 C 237.863281 340.023438 241.953125 341.867188 245.996094 343.785156 C 250.039062 345.703125 254.027344 347.6875 257.953125 349.746094 C 261.886719 351.800781 265.75 353.921875 269.546875 356.105469 C 273.339844 358.289062 277.058594 360.535156 280.699219 362.835938 C 284.339844 365.140625 287.894531 367.496094 291.363281 369.90625 C 294.832031 372.3125 298.210938 374.769531 301.492188 377.269531 C 304.769531 379.773438 307.945312 382.3125 311.015625 384.894531 C 314.089844 387.480469 317.050781 390.097656 319.898438 392.75 C 322.75 395.398438 325.480469 398.074219 328.089844 400.777344 C 329.808594 402.585938 331.46875 404.402344 333.074219 406.230469 L 201.792969 478.929688 C 185.644531 487.871094 165.445312 482.078125 156.5 465.9375 Z M 73.09375 315.421875 " fill-opacity="0.281" fill-rule="nonzero"/><path fill="#ffffff" d="M 129.21875 118.792969 L 280.179688 35.195312 C 280.6875 34.914062 281.195312 34.644531 281.707031 34.394531 C 282.214844 34.140625 282.734375 33.910156 283.25 33.6875 C 283.773438 33.46875 284.289062 33.253906 284.8125 33.058594 C 285.339844 32.871094 285.863281 32.6875 286.394531 32.523438 C 286.921875 32.359375 287.453125 32.203125 287.988281 32.0625 C 288.519531 31.921875 289.054688 31.800781 289.589844 31.6875 C 290.125 31.578125 290.660156 31.480469 291.195312 31.398438 C 291.734375 31.3125 292.273438 31.238281 292.8125 31.179688 C 293.351562 31.117188 293.886719 31.074219 294.425781 31.046875 C 294.960938 31.015625 295.5 31.007812 296.035156 30.996094 C 296.574219 30.992188 297.105469 30.992188 297.640625 31.015625 C 298.175781 31.039062 298.71875 31.070312 299.25 31.121094 C 299.78125 31.171875 300.308594 31.226562 300.839844 31.300781 C 301.367188 31.371094 301.894531 31.457031 302.417969 31.554688 C 302.945312 31.648438 303.460938 31.761719 303.980469 31.882812 C 304.5 32.007812 305.011719 32.140625 305.523438 32.289062 C 306.035156 32.433594 306.542969 32.59375 307.046875 32.765625 C 307.550781 32.933594 308.054688 33.117188 308.550781 33.308594 C 309.046875 33.503906 309.535156 33.714844 310.019531 33.933594 C 310.507812 34.152344 310.992188 34.386719 311.464844 34.632812 C 311.941406 34.875 312.414062 35.125 312.878906 35.390625 C 313.34375 35.65625 313.804688 35.933594 314.257812 36.222656 C 314.710938 36.511719 315.152344 36.8125 315.589844 37.125 C 316.03125 37.433594 316.464844 37.761719 316.890625 38.09375 C 317.316406 38.429688 317.734375 38.773438 318.140625 39.132812 C 318.554688 39.488281 318.960938 39.855469 319.355469 40.234375 C 319.75 40.613281 320.132812 41 320.507812 41.398438 C 320.886719 41.796875 321.257812 42.210938 321.617188 42.632812 C 321.980469 43.050781 322.328125 43.484375 322.671875 43.925781 C 323.015625 44.367188 323.339844 44.820312 323.660156 45.285156 C 323.976562 45.753906 324.300781 46.226562 324.601562 46.710938 C 324.898438 47.195312 325.195312 47.683594 325.476562 48.1875 L 417.871094 214.925781 C 415.246094 215.894531 412.53125 216.785156 409.730469 217.609375 C 406.933594 218.429688 404.054688 219.171875 401.09375 219.84375 C 398.132812 220.511719 395.101562 221.105469 391.992188 221.625 C 388.882812 222.140625 385.707031 222.582031 382.464844 222.945312 C 379.222656 223.304688 375.917969 223.589844 372.550781 223.796875 C 369.183594 224 365.765625 224.128906 362.289062 224.175781 C 358.8125 224.226562 355.289062 224.195312 351.722656 224.085938 C 348.152344 223.976562 344.539062 223.789062 340.890625 223.523438 C 337.238281 223.253906 333.554688 222.910156 329.839844 222.488281 C 326.121094 222.066406 322.378906 221.566406 318.613281 220.988281 C 314.847656 220.414062 311.0625 219.757812 307.257812 219.03125 C 303.457031 218.300781 299.644531 217.5 295.820312 216.621094 C 291.996094 215.742188 288.171875 214.792969 284.34375 213.769531 C 280.515625 212.746094 276.695312 211.652344 272.878906 210.488281 C 269.058594 209.324219 265.257812 208.089844 261.464844 206.789062 C 257.675781 205.488281 253.90625 204.121094 250.15625 202.6875 C 243.84375 200.273438 237.621094 197.683594 231.488281 194.921875 C 225.351562 192.160156 219.339844 189.238281 213.449219 186.15625 C 207.5625 183.074219 201.828125 179.851562 196.25 176.488281 C 190.671875 173.125 185.285156 169.636719 180.082031 166.03125 C 174.882812 162.421875 169.898438 158.710938 165.132812 154.902344 C 160.371094 151.089844 155.847656 147.199219 151.574219 143.226562 C 147.300781 139.257812 143.292969 135.230469 139.558594 131.144531 C 135.820312 127.058594 132.375 122.941406 129.222656 118.789062 Z M 129.21875 118.792969 " fill-opacity="0.153" fill-rule="nonzero"/><path fill="#e9e9e9" d="M 431.242188 379.613281 L 420.402344 53.769531 C 419.695312 32.566406 436.203125 14.929688 457.414062 14.222656 L 783.371094 3.386719 C 804.582031 2.679688 822.222656 19.183594 822.929688 40.386719 L 833.773438 366.230469 C 834.476562 387.433594 817.96875 405.070312 796.757812 405.777344 L 470.804688 416.613281 C 449.59375 417.320312 431.949219 400.816406 431.242188 379.613281 Z M 431.242188 379.613281 " fill-opacity="1" fill-rule="nonzero"/><path fill="#e85f79" d="M 421.304688 372.023438 L 410.992188 62.003906 C 410.320312 41.832031 426.023438 25.050781 446.203125 24.382812 L 756.324219 14.070312 C 776.503906 13.398438 793.292969 29.097656 793.960938 49.273438 L 804.277344 359.289062 C 804.949219 379.460938 789.242188 396.242188 769.0625 396.910156 L 458.941406 407.222656 C 438.761719 407.894531 421.976562 392.195312 421.304688 372.019531 Z M 421.304688 372.023438 " fill-opacity="1" fill-rule="nonzero"/><path fill="#ffffff" d="M 575.34375 312.039062 L 568.664062 111.277344 C 568.027344 92.152344 582.917969 76.242188 602.046875 75.609375 C 621.179688 74.972656 637.09375 89.855469 637.726562 108.980469 L 644.410156 309.742188 C 645.042969 328.867188 630.15625 344.773438 611.023438 345.410156 C 591.894531 346.046875 575.980469 331.164062 575.34375 312.039062 Z M 575.34375 312.039062 " fill-opacity="1" fill-rule="nonzero"/><path fill="#ffffff" d="M 504.964844 179.277344 L 705.792969 172.597656 C 724.921875 171.960938 740.835938 186.847656 741.472656 205.972656 C 742.109375 225.097656 727.21875 241.003906 708.089844 241.640625 L 507.261719 248.316406 C 488.128906 248.953125 472.214844 234.070312 471.578125 214.945312 C 470.941406 195.820312 485.832031 179.914062 504.964844 179.277344 Z M 504.964844 179.277344 " fill-opacity="1" fill-rule="nonzero"/><path fill="#ffffff" d="M 568.167969 20.628906 C 568.375 21.289062 568.589844 21.949219 568.8125 22.613281 C 570.105469 26.1875 571.539062 29.792969 573.117188 33.425781 C 574.695312 37.0625 576.410156 40.714844 578.265625 44.386719 C 580.121094 48.058594 582.105469 51.738281 584.226562 55.429688 C 586.34375 59.125 588.589844 62.816406 590.960938 66.507812 C 593.332031 70.203125 595.824219 73.886719 598.4375 77.5625 C 601.050781 81.238281 603.78125 84.898438 606.625 88.539062 C 609.46875 92.179688 612.421875 95.789062 615.476562 99.375 C 618.535156 102.960938 621.691406 106.511719 624.945312 110.027344 C 628.203125 113.535156 631.550781 117.003906 634.992188 120.421875 C 638.429688 123.847656 641.953125 127.214844 645.554688 130.53125 C 649.15625 133.84375 652.835938 137.09375 656.585938 140.28125 C 660.332031 143.46875 664.144531 146.582031 668.023438 149.632812 C 671.898438 152.679688 675.832031 155.652344 679.816406 158.542969 C 683.800781 161.429688 687.828125 164.234375 691.898438 166.953125 C 695.96875 169.667969 700.074219 172.292969 704.207031 174.824219 C 708.347656 177.359375 712.507812 179.792969 716.691406 182.128906 C 720.875 184.464844 725.070312 186.695312 729.273438 188.816406 C 733.484375 190.941406 737.691406 192.953125 741.902344 194.855469 C 746.113281 196.757812 750.3125 198.546875 754.503906 200.222656 C 758.695312 201.894531 762.863281 203.445312 767.015625 204.878906 C 771.167969 206.308594 775.285156 207.621094 779.378906 208.804688 C 783.464844 209.992188 787.511719 211.050781 791.515625 211.984375 C 794.179688 212.578125 796.816406 213.117188 799.433594 213.597656 L 793.976562 49.578125 C 793.304688 29.40625 776.523438 13.703125 756.34375 14.371094 Z M 568.167969 20.628906 " fill-opacity="0.311" fill-rule="nonzero"/><path fill="#ffffff" d="M 415.046875 183.71875 L 421.324219 372.324219 C 421.34375 372.953125 421.375 373.582031 421.425781 374.203125 C 421.472656 374.824219 421.550781 375.441406 421.628906 376.050781 C 421.71875 376.664062 421.808594 377.269531 421.917969 377.867188 C 422.035156 378.46875 422.160156 379.066406 422.300781 379.652344 C 422.441406 380.242188 422.59375 380.828125 422.765625 381.40625 C 422.933594 381.984375 423.117188 382.558594 423.3125 383.125 C 423.507812 383.6875 423.71875 384.242188 423.941406 384.792969 C 424.164062 385.34375 424.394531 385.894531 424.644531 386.433594 C 424.894531 386.96875 425.152344 387.496094 425.425781 388.019531 C 425.699219 388.539062 425.984375 389.050781 426.285156 389.558594 C 426.582031 390.066406 426.882812 390.566406 427.203125 391.054688 C 427.523438 391.546875 427.859375 392.03125 428.199219 392.507812 C 428.542969 392.980469 428.894531 393.441406 429.261719 393.898438 C 429.625 394.355469 430.003906 394.800781 430.390625 395.238281 C 430.777344 395.675781 431.167969 396.101562 431.574219 396.515625 C 431.980469 396.933594 432.398438 397.339844 432.820312 397.738281 C 433.246094 398.136719 433.679688 398.523438 434.125 398.902344 C 434.566406 399.277344 435.019531 399.648438 435.480469 400.003906 C 435.941406 400.359375 436.414062 400.703125 436.890625 401.035156 C 437.371094 401.367188 437.863281 401.6875 438.359375 402 C 438.855469 402.308594 439.355469 402.613281 439.867188 402.898438 C 440.375 403.183594 440.894531 403.460938 441.421875 403.726562 C 441.945312 403.988281 442.476562 404.234375 443.015625 404.472656 C 443.554688 404.710938 444.105469 404.933594 444.65625 405.144531 C 445.210938 405.355469 445.769531 405.554688 446.332031 405.738281 C 446.898438 405.921875 447.472656 406.101562 448.050781 406.257812 C 448.625 406.417969 449.203125 406.554688 449.789062 406.6875 C 450.378906 406.816406 450.972656 406.933594 451.570312 407.035156 C 452.167969 407.136719 452.773438 407.222656 453.378906 407.292969 C 453.988281 407.367188 454.597656 407.417969 455.210938 407.460938 C 455.828125 407.492188 456.453125 407.535156 457.078125 407.542969 C 457.699219 407.550781 458.324219 407.554688 458.953125 407.539062 L 667.414062 400.605469 C 666.84375 397.597656 666.160156 394.546875 665.359375 391.460938 C 664.558594 388.375 663.640625 385.253906 662.609375 382.097656 C 661.578125 378.945312 660.429688 375.765625 659.171875 372.558594 C 657.914062 369.351562 656.542969 366.125 655.0625 362.875 C 653.578125 359.628906 651.988281 356.367188 650.292969 353.09375 C 648.597656 349.820312 646.792969 346.539062 644.886719 343.25 C 642.980469 339.960938 640.976562 336.671875 638.867188 333.386719 C 636.761719 330.097656 634.558594 326.8125 632.257812 323.539062 C 629.957031 320.261719 627.566406 316.996094 625.082031 313.746094 C 622.597656 310.496094 620.027344 307.265625 617.371094 304.054688 C 614.714844 300.84375 611.972656 297.65625 609.15625 294.5 C 606.335938 291.339844 603.4375 288.210938 600.46875 285.117188 C 597.496094 282.023438 594.457031 278.96875 591.347656 275.949219 C 588.234375 272.933594 585.0625 269.960938 581.824219 267.03125 C 578.585938 264.105469 575.292969 261.226562 571.941406 258.402344 C 568.589844 255.574219 565.191406 252.804688 561.738281 250.089844 C 555.929688 245.523438 550.003906 241.140625 543.964844 236.933594 C 537.925781 232.726562 531.804688 228.726562 525.605469 224.929688 C 519.402344 221.132812 513.15625 217.5625 506.867188 214.21875 C 500.574219 210.875 494.277344 207.777344 487.96875 204.921875 C 481.660156 202.066406 475.378906 199.472656 469.121094 197.144531 C 462.867188 194.8125 456.675781 192.753906 450.546875 190.972656 C 444.417969 189.191406 438.386719 187.695312 432.453125 186.484375 C 426.519531 185.269531 420.714844 184.351562 415.046875 183.722656 Z M 415.046875 183.71875 " fill-opacity="0.153" fill-rule="nonzero"/><path fill="#e9e9e9" d="M 232.546875 341.476562 L 527.378906 452.347656 C 546.5625 459.5625 556.199219 480.8125 548.980469 499.988281 L 438.070312 794.722656 C 430.851562 813.902344 409.597656 823.53125 390.414062 816.316406 L 95.582031 705.445312 C 76.394531 698.230469 66.761719 676.980469 73.980469 657.804688 L 184.890625 363.070312 C 192.105469 343.894531 213.363281 334.261719 232.546875 341.476562 Z M 232.546875 341.476562 " fill-opacity="1" fill-rule="nonzero"/><path fill="#848ac4" d="M 240.769531 334.574219 L 521.277344 440.058594 C 539.53125 446.921875 548.699219 467.136719 541.832031 485.382812 L 436.3125 765.796875 C 429.445312 784.042969 409.222656 793.207031 390.96875 786.34375 L 110.460938 680.859375 C 92.207031 673.996094 83.042969 653.78125 89.910156 635.535156 L 195.429688 355.121094 C 202.292969 336.875 222.515625 327.710938 240.769531 334.574219 Z M 240.769531 334.574219 " fill-opacity="1" fill-rule="nonzero"/><path fill="#ffffff" d="M 237.164062 494.089844 L 418.816406 562.402344 C 436.121094 568.90625 444.8125 588.074219 438.304688 605.371094 C 431.792969 622.671875 412.621094 631.359375 395.316406 624.851562 L 213.664062 556.539062 C 196.359375 550.03125 187.671875 530.867188 194.179688 513.570312 C 200.6875 496.269531 219.859375 487.582031 237.164062 494.089844 Z M 237.164062 494.089844 " fill-opacity="1" fill-rule="nonzero"/><path fill="#ffffff" d="M 379.273438 486.09375 C 378.890625 487.109375 378.457031 488.105469 377.976562 489.078125 C 377.5 490.050781 376.972656 491 376.398438 491.921875 C 375.824219 492.84375 375.207031 493.734375 374.546875 494.59375 C 373.886719 495.457031 373.183594 496.285156 372.441406 497.074219 C 371.703125 497.867188 370.921875 498.621094 370.105469 499.335938 C 369.289062 500.054688 368.441406 500.726562 367.558594 501.359375 C 366.675781 501.992188 365.765625 502.578125 364.824219 503.121094 C 363.882812 503.664062 362.917969 504.160156 361.929688 504.609375 C 360.941406 505.058594 359.933594 505.457031 358.90625 505.804688 C 357.878906 506.152344 356.835938 506.453125 355.777344 506.699219 C 354.71875 506.945312 353.652344 507.140625 352.578125 507.28125 C 351.5 507.421875 350.417969 507.511719 349.335938 507.546875 C 348.25 507.582031 347.164062 507.566406 346.082031 507.496094 C 345 507.425781 343.921875 507.300781 342.851562 507.125 C 341.777344 506.945312 340.71875 506.71875 339.667969 506.4375 C 338.621094 506.15625 337.589844 505.824219 336.570312 505.445312 C 335.554688 505.0625 334.5625 504.628906 333.585938 504.152344 C 332.613281 503.671875 331.664062 503.144531 330.742188 502.570312 C 329.820312 502 328.929688 501.382812 328.066406 500.722656 C 327.207031 500.058594 326.378906 499.359375 325.585938 498.617188 C 324.792969 497.875 324.039062 497.097656 323.324219 496.28125 C 322.609375 495.464844 321.933594 494.617188 321.300781 493.734375 C 320.667969 492.851562 320.082031 491.941406 319.539062 491 C 318.996094 490.0625 318.5 489.097656 318.050781 488.109375 C 317.601562 487.121094 317.203125 486.113281 316.855469 485.082031 C 316.503906 484.054688 316.207031 483.015625 315.960938 481.957031 C 315.714844 480.898438 315.519531 479.832031 315.378906 478.757812 C 315.234375 477.679688 315.148438 476.601562 315.113281 475.515625 C 315.074219 474.433594 315.09375 473.347656 315.164062 472.265625 C 315.234375 471.183594 315.359375 470.105469 315.535156 469.035156 C 315.710938 467.964844 315.941406 466.902344 316.222656 465.855469 C 316.503906 464.804688 316.835938 463.773438 317.214844 462.757812 C 317.597656 461.742188 318.03125 460.75 318.507812 459.773438 C 318.988281 458.800781 319.515625 457.855469 320.089844 456.933594 C 320.664062 456.011719 321.28125 455.117188 321.941406 454.257812 C 322.601562 453.394531 323.304688 452.570312 324.046875 451.777344 C 324.789062 450.984375 325.566406 450.230469 326.382812 449.515625 C 327.199219 448.800781 328.046875 448.125 328.929688 447.492188 C 329.8125 446.859375 330.722656 446.273438 331.664062 445.730469 C 332.605469 445.1875 333.570312 444.691406 334.558594 444.242188 C 335.546875 443.796875 336.554688 443.398438 337.582031 443.046875 C 338.609375 442.699219 339.652344 442.402344 340.710938 442.152344 C 341.769531 441.90625 342.835938 441.714844 343.910156 441.570312 C 344.988281 441.429688 346.070312 441.339844 347.152344 441.304688 C 348.238281 441.269531 349.324219 441.289062 350.40625 441.359375 C 351.488281 441.429688 352.566406 441.550781 353.636719 441.730469 C 354.710938 441.90625 355.769531 442.132812 356.820312 442.414062 C 357.867188 442.695312 358.898438 443.027344 359.914062 443.410156 C 360.933594 443.792969 361.925781 444.222656 362.902344 444.703125 C 363.875 445.183594 364.824219 445.707031 365.746094 446.28125 C 366.667969 446.855469 367.558594 447.472656 368.421875 448.132812 C 369.28125 448.792969 370.109375 449.492188 370.902344 450.234375 C 371.695312 450.976562 372.449219 451.757812 373.164062 452.570312 C 373.878906 453.386719 374.554688 454.238281 375.1875 455.117188 C 375.820312 456 376.40625 456.914062 376.949219 457.851562 C 377.492188 458.792969 377.988281 459.757812 378.4375 460.746094 C 378.886719 461.734375 379.285156 462.742188 379.632812 463.769531 C 379.984375 464.796875 380.28125 465.839844 380.527344 466.894531 C 380.773438 467.953125 380.96875 469.019531 381.109375 470.09375 C 381.253906 471.171875 381.339844 472.25 381.375 473.335938 C 381.414062 474.421875 381.394531 475.503906 381.324219 476.589844 C 381.253906 477.671875 381.128906 478.746094 380.953125 479.820312 C 380.777344 480.890625 380.546875 481.949219 380.265625 483 C 379.984375 484.046875 379.652344 485.078125 379.273438 486.09375 Z M 379.273438 486.09375 " fill-opacity="1" fill-rule="nonzero"/><path fill="#ffffff" d="M 315.746094 654.90625 C 315.363281 655.921875 314.933594 656.917969 314.453125 657.890625 C 313.972656 658.863281 313.445312 659.8125 312.875 660.734375 C 312.300781 661.65625 311.683594 662.546875 311.023438 663.410156 C 310.363281 664.269531 309.660156 665.097656 308.917969 665.886719 C 308.175781 666.679688 307.398438 667.433594 306.582031 668.152344 C 305.765625 668.867188 304.914062 669.539062 304.035156 670.171875 C 303.152344 670.804688 302.238281 671.394531 301.300781 671.9375 C 300.359375 672.480469 299.394531 672.972656 298.40625 673.421875 C 297.417969 673.871094 296.410156 674.269531 295.378906 674.617188 C 294.351562 674.96875 293.308594 675.265625 292.253906 675.511719 C 291.195312 675.757812 290.128906 675.953125 289.050781 676.09375 C 287.976562 676.234375 286.894531 676.324219 285.808594 676.359375 C 284.726562 676.394531 283.640625 676.378906 282.558594 676.308594 C 281.472656 676.238281 280.394531 676.113281 279.324219 675.9375 C 278.253906 675.761719 277.195312 675.53125 276.144531 675.25 C 275.097656 674.96875 274.0625 674.636719 273.046875 674.257812 C 272.03125 673.875 271.035156 673.445312 270.0625 672.964844 C 269.089844 672.484375 268.140625 671.957031 267.21875 671.382812 C 266.296875 670.8125 265.40625 670.195312 264.542969 669.535156 C 263.683594 668.875 262.855469 668.171875 262.0625 667.429688 C 261.269531 666.6875 260.515625 665.910156 259.800781 665.09375 C 259.082031 664.277344 258.410156 663.429688 257.777344 662.546875 C 257.144531 661.664062 256.554688 660.753906 256.011719 659.8125 C 255.46875 658.875 254.976562 657.910156 254.527344 656.921875 C 254.078125 655.933594 253.679688 654.925781 253.332031 653.898438 C 252.980469 652.871094 252.683594 651.828125 252.4375 650.769531 C 252.191406 649.714844 251.996094 648.648438 251.855469 647.570312 C 251.710938 646.496094 251.621094 645.414062 251.585938 644.328125 C 251.550781 643.246094 251.570312 642.160156 251.640625 641.078125 C 251.710938 639.996094 251.835938 638.917969 252.011719 637.847656 C 252.1875 636.777344 252.417969 635.714844 252.695312 634.667969 C 252.976562 633.621094 253.308594 632.585938 253.691406 631.570312 C 254.074219 630.554688 254.503906 629.5625 254.984375 628.585938 C 255.464844 627.613281 255.992188 626.667969 256.566406 625.746094 C 257.136719 624.824219 257.753906 623.929688 258.414062 623.070312 C 259.078125 622.207031 259.777344 621.382812 260.519531 620.589844 C 261.261719 619.796875 262.042969 619.042969 262.859375 618.328125 C 263.675781 617.613281 264.523438 616.9375 265.40625 616.304688 C 266.289062 615.671875 267.199219 615.085938 268.140625 614.542969 C 269.078125 614 270.042969 613.503906 271.03125 613.054688 C 272.023438 612.609375 273.03125 612.210938 274.058594 611.859375 C 275.085938 611.511719 276.128906 611.214844 277.1875 610.96875 C 278.242188 610.71875 279.308594 610.527344 280.386719 610.382812 C 281.464844 610.242188 282.542969 610.152344 283.628906 610.117188 C 284.714844 610.082031 285.796875 610.101562 286.882812 610.171875 C 287.964844 610.242188 289.042969 610.363281 290.113281 610.542969 C 291.183594 610.71875 292.246094 610.945312 293.292969 611.226562 C 294.34375 611.507812 295.375 611.839844 296.390625 612.222656 C 297.40625 612.605469 298.402344 613.035156 299.375 613.515625 C 300.351562 613.996094 301.296875 614.519531 302.21875 615.09375 C 303.140625 615.667969 304.035156 616.285156 304.894531 616.945312 C 305.757812 617.605469 306.585938 618.304688 307.375 619.046875 C 308.167969 619.789062 308.921875 620.570312 309.640625 621.382812 C 310.355469 622.199219 311.03125 623.050781 311.664062 623.929688 C 312.292969 624.8125 312.882812 625.726562 313.425781 626.664062 C 313.96875 627.605469 314.464844 628.570312 314.914062 629.558594 C 315.359375 630.546875 315.757812 631.554688 316.109375 632.582031 C 316.457031 633.609375 316.753906 634.652344 317.003906 635.707031 C 317.25 636.765625 317.445312 637.832031 317.585938 638.90625 C 317.726562 639.984375 317.816406 641.0625 317.851562 642.148438 C 317.886719 643.234375 317.871094 644.316406 317.800781 645.402344 C 317.726562 646.484375 317.605469 647.5625 317.429688 648.632812 C 317.25 649.703125 317.023438 650.761719 316.742188 651.8125 C 316.460938 652.859375 316.128906 653.890625 315.746094 654.90625 Z M 315.746094 654.90625 " fill-opacity="1" fill-rule="nonzero"/><path fill="#ffffff" d="M 498.960938 595.125 C 498.292969 595.066406 497.625 595.011719 496.949219 594.964844 C 493.28125 594.796875 489.53125 594.742188 485.703125 594.804688 C 481.878906 594.867188 477.984375 595.046875 474.019531 595.339844 C 470.058594 595.636719 466.035156 596.046875 461.957031 596.574219 C 457.878906 597.09375 453.75 597.730469 449.578125 598.480469 C 445.40625 599.230469 441.195312 600.089844 436.949219 601.058594 C 432.699219 602.03125 428.421875 603.113281 424.121094 604.300781 C 419.820312 605.492188 415.503906 606.789062 411.175781 608.1875 C 406.84375 609.589844 402.507812 611.089844 398.167969 612.695312 C 393.828125 614.300781 389.496094 616.003906 385.171875 617.808594 C 380.84375 619.609375 376.535156 621.5 372.242188 623.488281 C 367.953125 625.476562 363.691406 627.554688 359.460938 629.71875 C 355.226562 631.882812 351.035156 634.132812 346.882812 636.460938 C 342.726562 638.792969 338.621094 641.199219 334.566406 643.683594 C 330.515625 646.167969 326.523438 648.726562 322.589844 651.351562 C 318.660156 653.976562 314.800781 656.664062 311.011719 659.417969 C 307.21875 662.171875 303.503906 664.980469 299.875 667.847656 C 296.242188 670.714844 292.699219 673.632812 289.25 676.597656 C 285.796875 679.566406 282.445312 682.574219 279.191406 685.625 C 275.933594 688.675781 272.78125 691.761719 269.738281 694.882812 C 266.695312 698 263.769531 701.144531 260.953125 704.316406 C 258.140625 707.488281 255.445312 710.679688 252.875 713.890625 C 250.304688 717.097656 247.863281 720.3125 245.550781 723.542969 C 244.035156 725.695312 242.578125 727.851562 241.179688 730.007812 L 389.585938 785.816406 C 407.839844 792.679688 428.0625 783.519531 434.929688 765.273438 Z M 498.960938 595.125 " fill-opacity="0.255" fill-rule="nonzero"/><path fill="#ffffff" d="M 410.042969 398.222656 L 239.390625 334.046875 C 238.820312 333.832031 238.246094 333.628906 237.675781 333.445312 C 237.101562 333.257812 236.523438 333.097656 235.949219 332.941406 C 235.371094 332.796875 234.796875 332.652344 234.222656 332.527344 C 233.640625 332.410156 233.066406 332.300781 232.488281 332.207031 C 231.90625 332.113281 231.328125 332.035156 230.75 331.972656 C 230.171875 331.910156 229.589844 331.863281 229.015625 331.828125 C 228.4375 331.796875 227.867188 331.777344 227.292969 331.765625 C 226.71875 331.761719 226.140625 331.765625 225.570312 331.785156 C 225 331.808594 224.433594 331.847656 223.863281 331.894531 C 223.296875 331.945312 222.734375 332.011719 222.171875 332.089844 C 221.609375 332.164062 221.050781 332.253906 220.496094 332.355469 C 219.941406 332.460938 219.382812 332.582031 218.832031 332.710938 C 218.285156 332.839844 217.738281 332.984375 217.199219 333.140625 C 216.65625 333.296875 216.117188 333.46875 215.585938 333.652344 C 215.050781 333.835938 214.527344 334.027344 214.003906 334.238281 C 213.480469 334.445312 212.964844 334.664062 212.453125 334.894531 C 211.941406 335.128906 211.433594 335.371094 210.933594 335.628906 C 210.433594 335.882812 209.9375 336.148438 209.445312 336.429688 C 208.957031 336.710938 208.480469 337.003906 208.003906 337.308594 C 207.53125 337.613281 207.0625 337.933594 206.601562 338.257812 C 206.140625 338.585938 205.6875 338.921875 205.242188 339.269531 C 204.796875 339.621094 204.359375 339.980469 203.929688 340.351562 C 203.5 340.722656 203.085938 341.105469 202.675781 341.496094 C 202.261719 341.890625 201.859375 342.296875 201.464844 342.714844 C 201.070312 343.128906 200.691406 343.550781 200.316406 343.988281 C 199.941406 344.425781 199.570312 344.871094 199.214844 345.328125 C 198.863281 345.78125 198.523438 346.246094 198.191406 346.722656 C 197.859375 347.195312 197.535156 347.6875 197.222656 348.179688 C 196.90625 348.675781 196.609375 349.183594 196.320312 349.699219 C 196.027344 350.210938 195.757812 350.734375 195.496094 351.269531 C 195.234375 351.804688 194.972656 352.351562 194.734375 352.902344 C 194.496094 353.457031 194.257812 354.011719 194.042969 354.582031 L 123.113281 543.070312 C 126.011719 543.675781 128.984375 544.195312 132.035156 544.621094 C 135.089844 545.050781 138.210938 545.386719 141.410156 545.632812 C 144.605469 545.878906 147.867188 546.03125 151.195312 546.09375 C 154.523438 546.15625 157.910156 546.128906 161.359375 546.007812 C 164.804688 545.890625 168.300781 545.679688 171.851562 545.375 C 175.402344 545.074219 178.996094 544.679688 182.636719 544.195312 C 186.277344 543.714844 189.953125 543.140625 193.667969 542.476562 C 197.382812 541.8125 201.128906 541.0625 204.902344 540.222656 C 208.679688 539.382812 212.476562 538.457031 216.296875 537.445312 C 220.113281 536.429688 223.949219 535.335938 227.796875 534.152344 C 231.648438 532.96875 235.503906 531.707031 239.367188 530.359375 C 243.230469 529.015625 247.089844 527.589844 250.953125 526.082031 C 254.8125 524.578125 258.664062 522.996094 262.507812 521.339844 C 266.351562 519.679688 270.179688 517.949219 273.988281 516.144531 C 277.800781 514.339844 281.585938 512.46875 285.347656 510.523438 C 289.109375 508.582031 292.839844 506.574219 296.539062 504.5 C 302.765625 501.007812 308.871094 497.34375 314.859375 493.511719 C 320.847656 489.679688 326.679688 485.703125 332.363281 481.578125 C 338.046875 477.449219 343.542969 473.199219 348.855469 468.828125 C 354.167969 464.453125 359.261719 459.980469 364.144531 455.410156 C 369.027344 450.839844 373.664062 446.195312 378.058594 441.480469 C 382.453125 436.765625 386.578125 432.003906 390.4375 427.195312 C 394.292969 422.386719 397.863281 417.5625 401.136719 412.71875 C 404.414062 407.875 407.382812 403.039062 410.039062 398.214844 Z M 410.042969 398.222656 " fill-opacity="0.153" fill-rule="nonzero"/><path fill="#e9e9e9" d="M 452.871094 481.246094 L 697.5625 312.761719 C 713.484375 301.796875 735.128906 305.785156 746.097656 321.703125 L 914.636719 566.308594 C 925.605469 582.226562 921.617188 603.867188 905.695312 614.828125 L 661.003906 783.3125 C 645.082031 794.277344 623.4375 790.289062 612.46875 774.371094 L 443.929688 529.765625 C 432.960938 513.847656 436.949219 492.210938 452.871094 481.246094 Z M 452.871094 481.246094 " fill-opacity="1" fill-rule="nonzero"/><path fill="#4bb0e4" d="M 451.421875 471.503906 L 684.222656 311.207031 C 699.371094 300.773438 719.96875 304.570312 730.402344 319.710938 L 890.753906 552.433594 C 901.191406 567.578125 897.394531 588.167969 882.246094 598.597656 L 649.445312 758.894531 C 634.296875 769.328125 613.699219 765.53125 603.265625 750.390625 L 442.914062 517.667969 C 432.480469 502.523438 436.273438 481.933594 451.421875 471.503906 Z M 451.421875 471.503906 " fill-opacity="1" fill-rule="nonzero"/><path fill="#ffffff" d="M 591.972656 479.863281 L 772.097656 512.496094 C 789.257812 515.605469 800.566406 531.917969 797.457031 549.070312 C 794.347656 566.226562 778.03125 577.53125 760.871094 574.421875 L 580.746094 541.785156 C 563.585938 538.679688 552.273438 522.367188 555.386719 505.210938 C 558.496094 488.058594 574.8125 476.753906 591.972656 479.863281 Z M 591.972656 479.863281 " fill-opacity="1" fill-rule="nonzero"/><path fill="#ffffff" d="M 723.726562 442.78125 L 691.078125 622.847656 C 687.96875 640 671.652344 651.304688 654.492188 648.199219 C 637.335938 645.089844 626.023438 628.777344 629.132812 611.625 L 661.78125 431.558594 C 664.890625 414.40625 681.207031 403.097656 698.367188 406.207031 C 715.527344 409.316406 726.835938 425.628906 723.726562 442.78125 Z M 723.726562 442.78125 " fill-opacity="1" fill-rule="nonzero"/><path fill="#ffffff" d="M 793.515625 411.175781 C 793.113281 411.660156 792.710938 412.152344 792.308594 412.644531 C 790.203125 415.394531 788.140625 418.269531 786.128906 421.261719 C 784.117188 424.257812 782.15625 427.371094 780.25 430.597656 C 778.34375 433.824219 776.496094 437.15625 774.707031 440.597656 C 772.914062 444.035156 771.183594 447.574219 769.515625 451.207031 C 767.847656 454.839844 766.246094 458.5625 764.710938 462.371094 C 763.175781 466.183594 761.707031 470.074219 760.3125 474.046875 C 758.917969 478.015625 757.597656 482.054688 756.351562 486.160156 C 755.101562 490.269531 753.929688 494.433594 752.832031 498.65625 C 751.738281 502.878906 750.726562 507.152344 749.792969 511.46875 C 748.855469 515.789062 748.003906 520.144531 747.230469 524.539062 C 746.460938 528.929688 745.773438 533.34375 745.171875 537.785156 C 744.566406 542.230469 744.050781 546.683594 743.617188 551.152344 C 743.183594 555.625 742.835938 560.101562 742.578125 564.578125 C 742.320312 569.050781 742.148438 573.519531 742.066406 577.976562 C 741.980469 582.433594 741.984375 586.867188 742.074219 591.285156 C 742.164062 595.703125 742.34375 600.089844 742.605469 604.445312 C 742.871094 608.800781 743.222656 613.113281 743.660156 617.382812 C 744.101562 621.652344 744.625 625.867188 745.234375 630.03125 C 745.84375 634.195312 746.535156 638.296875 747.3125 642.335938 C 748.089844 646.367188 748.949219 650.328125 749.890625 654.214844 C 750.832031 658.101562 751.851562 661.90625 752.953125 665.625 C 754.050781 669.339844 755.226562 672.964844 756.480469 676.492188 C 757.332031 678.828125 758.21875 681.117188 759.136719 683.359375 L 882.300781 598.550781 C 897.449219 588.117188 901.25 567.53125 890.816406 552.386719 Z M 793.515625 411.175781 " fill-opacity="0.383" fill-rule="nonzero"/><path fill="#ffffff" d="M 593.109375 373.9375 L 451.480469 471.460938 C 451.007812 471.785156 450.542969 472.117188 450.089844 472.464844 C 449.636719 472.804688 449.203125 473.167969 448.773438 473.527344 C 448.347656 473.898438 447.925781 474.261719 447.519531 474.640625 C 447.117188 475.027344 446.71875 475.414062 446.335938 475.8125 C 445.957031 476.210938 445.582031 476.617188 445.21875 477.03125 C 444.859375 477.441406 444.511719 477.867188 444.175781 478.296875 C 443.835938 478.722656 443.515625 479.15625 443.203125 479.597656 C 442.886719 480.039062 442.578125 480.488281 442.289062 480.941406 C 442 481.398438 441.722656 481.855469 441.457031 482.320312 C 441.1875 482.789062 440.9375 483.257812 440.695312 483.734375 C 440.453125 484.214844 440.21875 484.691406 440 485.175781 C 439.78125 485.664062 439.570312 486.160156 439.375 486.65625 C 439.183594 487.148438 439 487.648438 438.828125 488.152344 C 438.660156 488.65625 438.503906 489.167969 438.359375 489.675781 C 438.210938 490.1875 438.078125 490.699219 437.957031 491.214844 C 437.835938 491.730469 437.730469 492.25 437.632812 492.769531 C 437.539062 493.292969 437.453125 493.8125 437.382812 494.339844 C 437.308594 494.867188 437.246094 495.394531 437.203125 495.921875 C 437.15625 496.453125 437.125 496.980469 437.105469 497.511719 C 437.085938 498.042969 437.082031 498.578125 437.085938 499.109375 C 437.089844 499.644531 437.105469 500.175781 437.136719 500.707031 C 437.167969 501.238281 437.210938 501.773438 437.269531 502.304688 C 437.324219 502.835938 437.398438 503.363281 437.480469 503.894531 C 437.5625 504.425781 437.660156 504.957031 437.769531 505.484375 C 437.878906 506.011719 438.003906 506.539062 438.140625 507.0625 C 438.273438 507.585938 438.421875 508.113281 438.582031 508.632812 C 438.746094 509.152344 438.921875 509.664062 439.109375 510.179688 C 439.300781 510.691406 439.503906 511.207031 439.71875 511.714844 C 439.933594 512.222656 440.164062 512.726562 440.410156 513.230469 C 440.648438 513.734375 440.910156 514.222656 441.179688 514.714844 C 441.457031 515.207031 441.738281 515.703125 442.035156 516.1875 C 442.335938 516.667969 442.640625 517.148438 442.964844 517.621094 L 550.753906 674.054688 C 552.78125 672.140625 554.785156 670.117188 556.761719 667.984375 C 558.734375 665.851562 560.679688 663.613281 562.589844 661.273438 C 564.503906 658.929688 566.378906 656.488281 568.222656 653.945312 C 570.0625 651.40625 571.867188 648.769531 573.628906 646.035156 C 575.390625 643.304688 577.113281 640.484375 578.789062 637.570312 C 580.46875 634.660156 582.101562 631.667969 583.6875 628.589844 C 585.273438 625.511719 586.808594 622.355469 588.296875 619.125 C 589.785156 615.890625 591.21875 612.585938 592.601562 609.214844 C 593.988281 605.839844 595.3125 602.402344 596.585938 598.898438 C 597.859375 595.398438 599.074219 591.835938 600.234375 588.222656 C 601.390625 584.605469 602.488281 580.941406 603.527344 577.226562 C 604.566406 573.511719 605.542969 569.753906 606.457031 565.953125 C 607.371094 562.15625 608.21875 558.320312 609.003906 554.453125 C 609.792969 550.585938 610.511719 546.691406 611.167969 542.769531 C 611.824219 538.847656 612.410156 534.90625 612.933594 530.949219 C 613.453125 526.992188 613.90625 523.023438 614.292969 519.042969 C 614.941406 512.34375 615.394531 505.644531 615.652344 498.945312 C 615.910156 492.246094 615.96875 485.585938 615.835938 478.964844 C 615.699219 472.347656 615.371094 465.800781 614.84375 459.335938 C 614.316406 452.867188 613.597656 446.511719 612.6875 440.273438 C 611.777344 434.03125 610.679688 427.941406 609.390625 422 C 608.105469 416.058594 606.640625 410.296875 604.996094 404.722656 C 603.347656 399.148438 601.53125 393.785156 599.546875 388.640625 C 597.558594 383.496094 595.414062 378.59375 593.105469 373.9375 Z M 593.109375 373.9375 " fill-opacity="0.153" fill-rule="nonzero"/></g></g></g></svg>